<?xml version="1.0" encoding="UTF-8" standalone="no"?><!DOCTYPE svg PUBLIC "-//W3C//DTD SVG 1.1//EN" "http://www.w3.org/Graphics/SVG/1.1/DTD/svg11.dtd"><svg width="100%" height="100%" viewBox="0 0 616 165" version="1.1" xmlns="http://www.w3.org/2000/svg" xmlns:xlink="http://www.w3.org/1999/xlink" xml:space="preserve" xmlns:serif="http://www.serif.com/" style="fill-rule:evenodd;clip-rule:evenodd;stroke-linejoin:round;stroke-miterlimit:2;"><g><path d="M105.781,0C77.894,0 24.839,33.125 19.104,53.125C17.563,58.5 23.534,65.25 31.152,65.25C35.034,65.25 56.156,54.25 79.3,54.25C89.363,54.25 88.901,61.875 86.249,71.125C80.299,91.875 38.053,114.375 20.803,114.375C16.491,114.375 8.44,112.875 10.089,107.125C11.917,100.75 3.111,99.375 0.817,107.375C-3.448,122.25 9.926,129.75 19.27,129.75C47.301,129.75 100.973,105 110.937,70.25C113.733,60.5 113.184,47.375 82.278,47.375C58.703,47.375 41.172,55.875 34.559,55.875C19.897,55.875 71.332,19.875 97.063,19.875C108.563,19.875 113.78,27.75 117.086,27.75C124.274,27.75 125.187,0 105.781,0Z" style="fill:rgb(42,128,0);fill-rule:nonzero;"/><path d="M171.374,56.5C169.828,55.375 156.277,53 150.351,57.125C145.825,60.375 137.533,73.25 130.75,85.375C135.735,71.5 139.645,61.375 140.433,58.625C141.903,53.5 134.572,53.5 129.109,53.5C118.615,53.5 80.857,164.625 110.182,164.625C117.369,164.625 108.416,157.75 117.663,125.5C119.563,118.875 121.606,112.25 123.686,106C130.11,94.125 148.629,61.625 157.685,61.625C162.573,61.625 148.995,118 131.17,118C123.12,118 129.844,122.625 138.181,122.625C169.806,122.625 186.583,67.125 171.374,56.5Z" style="fill:rgb(42,128,0);fill-rule:nonzero;"/><path d="M232.428,51.625C225.815,51.625 205.676,79.75 197.243,96.125C197.959,92.625 198.962,88.625 200.288,84C203.012,74.5 207.68,68.25 209.149,63.125C210.655,57.875 207.453,53.5 197.822,53.5C192.934,53.5 185.725,72.125 182.069,84.875C168.233,133.125 193.6,126.875 194.568,123.5C195.177,121.375 193.702,119 194.737,109.875C200.977,92.125 225.932,63.25 225.932,63.25C225.932,63.25 220.406,74 219.617,76.75C218.829,79.5 223.431,82 230.762,82C237.949,82 243.835,72 246.81,61.625C249.785,51.25 240.334,51.625 232.428,51.625Z" style="fill:rgb(42,128,0);fill-rule:nonzero;"/><path d="M276.846,96.877C271.115,103.854 263.901,111.773 260.009,113.375C258.927,108.625 258.31,100.25 262.145,86.875C263.686,81.5 266.699,74 267.99,69.5C269.782,63.25 253.067,58.375 251.49,63.875C250.594,67 247.508,72.25 243.35,86.75C240.052,98.25 235.649,121.625 254.337,121.625L254.624,121.625C260.159,121.625 268.909,112.44 276.158,103.297C275.564,113.414 277.671,122.75 287.508,122.75C288.227,122.75 288.838,122.625 289.305,122.5L289.736,122.5C290.527,122.25 290.922,121.875 291.245,121.25C298.894,114.125 320.213,77.875 330.517,64C325.745,73.625 317.959,90.25 313.98,104.125C307.923,125.25 328.876,127.875 329.916,124.25C330.955,120.625 327.901,121.75 333.313,102.875C336.038,93.375 350.932,67 352.652,61C353.512,58 349.737,55.625 345.46,54.5C345.136,54.125 343.914,53.875 341.614,53.875C340.644,53.75 339.781,53.75 338.919,53.75C338.344,53.75 337.876,53.875 337.266,54C336.799,54.125 336.331,54.25 335.972,54.5C324.153,59.625 302.399,92.375 292.385,108.25C292.67,105.75 293.207,102.875 294.139,99.625C295.322,95.5 299.768,82 300.521,79.375C302.851,71.25 281.361,72.5 280.716,74.75C280.071,77 281.903,76.125 281.257,78.375C281.025,79.186 278.238,87.592 276.846,96.877ZM280.048,47C281.41,42.25 275.942,34.75 268.898,34.75C261.71,34.75 255.601,34.5 253.773,40.875C251.981,47.125 276.822,58.25 280.048,47Z" style="fill:rgb(42,128,0);fill-rule:nonzero;"/><path d="M422.79,139.75C400.508,139.75 398.794,106.125 393.679,90.875C405.285,87.5 415.414,81.25 418.819,69.375C422.44,56.75 411.443,57 401.812,57C394.768,57 380.008,70.375 371.356,82.5C376.878,66.75 390.334,38.875 392.054,32.875C393.954,26.25 373.897,21.5 371.998,28.125C371.173,31 353.92,74.125 350.443,86.25C343.239,111.375 353.166,122.375 364.234,122.375C369.697,122.375 364.736,120.125 366.341,104.5C367.524,100.875 368.923,97.5 370.538,94.375C387.36,97.875 376.579,146.5 412.373,146.5C425.167,146.5 428.971,139.75 422.79,139.75ZM373.553,88.375C387.047,64.875 406.267,55.5 403.435,65.375C402.682,68 393.568,85.75 373.553,88.375Z" style="fill:rgb(42,128,0);fill-rule:nonzero;"/><path d="M446.129,17.75C444.804,23.875 420.873,75.75 415.607,98.625C410.234,121.375 421.096,133.125 429.253,132.75C437.519,132.5 426.161,130.5 432.537,102.75C436.872,84.625 461.555,29.125 463.382,21.25C465.173,13.5 448.601,7.625 446.129,17.75Z" style="fill:rgb(42,128,0);fill-rule:nonzero;"/><path d="M497.471,98.453C491.617,104.925 483.554,111.25 474.231,111.25C466.324,111.25 461.176,98.625 465.874,86.25C468.678,87 472.452,87.875 475.902,87.875C485.246,87.875 494.405,81 498.168,67.875C500.176,60.875 498.662,55.125 494.851,53.375C490.933,51.5 477.348,50.75 470.163,55.25C463.123,59.75 449.334,74.75 444.675,91C441.09,103.5 448.541,119.125 468.523,119.125C479.66,119.125 489.471,111.667 496.76,103.809C494.162,131.231 512.309,126.344 513.124,123.5C513.734,121.375 512.258,119 513.294,109.875C519.533,92.125 544.488,63.25 544.488,63.25C544.488,63.25 538.962,74 538.173,76.75C537.385,79.5 541.987,82 549.318,82C556.506,82 562.392,72 565.367,61.625C568.342,51.25 558.89,51.625 550.984,51.625C544.372,51.625 524.232,79.75 515.799,96.125C516.515,92.625 517.518,88.625 518.845,84C521.569,74.5 526.236,68.25 527.705,63.125C529.211,57.875 526.009,53.5 516.378,53.5C511.49,53.5 504.281,72.125 500.625,84.875C499.158,89.99 498.132,94.492 497.471,98.453ZM486.7,62.75C490.366,62.75 489.5,69.656 485.677,75.719C481.854,81.781 475.075,87 466.915,83.625C471.47,72.75 479.225,62.75 486.7,62.75Z" style="fill:rgb(42,128,0);fill-rule:nonzero;"/><path d="M560.43,83.875C554.624,104.125 586.713,100 586.713,100C585.423,104.5 560.28,123 553.38,123C549.643,123 553.241,129.5 561.723,129.5C570.204,129.5 598.473,111.625 601.663,100.5C604.817,89.5 582.752,89.75 579.014,89.75C570.533,89.75 587.585,65.375 598.654,65.375C600.954,65.375 589.863,83 592.45,83C594.894,83 612.099,71.125 614.787,61.75C617.511,52.25 602.67,53.375 592.176,53.375C581.826,53.375 563.549,73 560.43,83.875Z" style="fill:rgb(42,128,0);fill-rule:nonzero;"/></g></svg>
